<svg xmlns="http://www.w3.org/2000/svg" xmlns:xlink="http://www.w3.org/1999/xlink" width="500" zoomAndPan="magnify" viewBox="0 0 375 374.999991" height="500" preserveAspectRatio="xMidYMid meet" version="1.0"><defs><g/><clipPath id="ca673f813d"><path d="M 125.078125 129.023438 L 222.578125 129.023438 L 222.578125 199.523438 L 125.078125 199.523438 Z M 125.078125 129.023438 " clip-rule="nonzero"/></clipPath><clipPath id="e920cf2f22"><path d="M 174 129.023438 L 195 129.023438 L 195 147 L 174 147 Z M 174 129.023438 " clip-rule="nonzero"/></clipPath></defs><g clip-path="url(#ca673f813d)"><path fill="#d9d9d9" d="M 221.988281 182.753906 C 220.871094 186.953125 219.257812 190.105469 216.925781 192.453125 C 216.828125 192.554688 216.726562 192.636719 216.628906 192.734375 C 214.316406 194.90625 211.066406 196.03125 206.78125 196.03125 L 187.828125 196.03125 L 187.828125 165.398438 C 187.867188 164.816406 187.90625 164.234375 187.925781 163.652344 C 187.96875 162.265625 187.945312 160.921875 187.828125 159.574219 C 187.308594 153.429688 185.078125 147.824219 181.132812 142.761719 C 180.492188 141.941406 179.816406 141.15625 179.097656 140.351562 C 172.917969 133.625 163.292969 129.847656 150.417969 129.023438 L 125.085938 129.023438 L 125.085938 129.746094 C 126.917969 129.746094 128.535156 130.148438 129.847656 130.972656 C 131.164062 131.898438 131.78125 133.324219 131.78125 135.371094 L 131.78125 192.675781 C 131.78125 194.082031 131.503906 195.1875 130.886719 196.03125 C 130.605469 196.410156 130.269531 196.710938 129.847656 196.972656 C 129.828125 196.992188 129.789062 197.015625 129.769531 197.035156 C 128.472656 197.917969 126.878906 198.300781 125.085938 198.398438 L 125.085938 199.023438 L 148.902344 199.023438 C 159.148438 198.320312 167.300781 195.847656 173.339844 191.691406 C 174.894531 190.625 176.308594 189.441406 177.582031 188.136719 L 177.582031 178.976562 C 175.769531 182.453125 173.339844 185.445312 170.289062 187.976562 C 169.492188 188.636719 168.675781 189.242188 167.835938 189.824219 C 161.480469 194.183594 153.804688 196.230469 144.9375 196.050781 L 138.460938 196.050781 L 138.460938 131.976562 L 147.367188 131.976562 C 157.511719 132.078125 165.703125 134.730469 172.003906 139.953125 C 174.273438 141.859375 176.128906 144.148438 177.5625 146.820312 C 179.496094 150.375 180.671875 154.59375 181.132812 159.433594 L 181.132812 192.65625 C 181.132812 194.703125 180.511719 196.128906 179.199219 196.953125 C 177.882812 197.878906 176.269531 198.28125 174.433594 198.378906 L 174.433594 199.003906 L 212.742188 199.003906 C 213.539062 198.960938 214.316406 198.960938 215.074219 199.023438 C 216.25 199.101562 217.40625 199.265625 218.519531 199.523438 L 222.566406 182.875 Z M 221.988281 182.753906 " fill-opacity="1" fill-rule="nonzero"/></g><g clip-path="url(#e920cf2f22)"><path fill="#d9d9d9" d="M 181.152344 135.351562 L 181.152344 137.097656 C 181.589844 137.519531 181.988281 137.941406 182.40625 138.363281 C 183.0625 139.085938 183.703125 139.832031 184.28125 140.574219 C 185.675781 142.339844 186.871094 144.1875 187.847656 146.097656 L 187.847656 135.25 C 187.847656 133.304688 188.566406 131.875 189.878906 130.953125 C 191.195312 130.128906 192.808594 129.726562 194.542969 129.726562 L 194.542969 129.023438 L 174.453125 129.023438 L 174.453125 129.746094 C 176.289062 129.746094 177.902344 130.148438 179.21875 130.972656 C 180.53125 131.875 181.152344 133.324219 181.152344 135.351562 Z M 181.152344 135.351562 " fill-opacity="1" fill-rule="nonzero"/></g><path fill="#d9d9d9" d="M 112.507812 194.574219 L 108.4375 177.761719 L 109.894531 177.410156 L 113.964844 194.21875 Z M 112.507812 194.574219 " fill-opacity="1" fill-rule="nonzero"/><g fill="#d9d9d9" fill-opacity="1"><g transform="translate(111.048615, 194.925325)"><g><path d="M -16.5625 1.8125 L -17.734375 -2.984375 C -18.222656 -5.035156 -18.234375 -6.816406 -17.765625 -8.328125 C -17.296875 -9.847656 -16.503906 -11.0625 -15.390625 -11.96875 C -14.273438 -12.882812 -13 -13.515625 -11.5625 -13.859375 C -10.019531 -14.234375 -8.566406 -14.195312 -7.203125 -13.75 C -5.847656 -13.3125 -4.707031 -12.554688 -3.78125 -11.484375 C -2.851562 -10.410156 -2.210938 -9.132812 -1.859375 -7.65625 L -0.5 -2.078125 Z M -4.765625 -6.375 C -5.160156 -8.019531 -5.898438 -9.21875 -6.984375 -9.96875 C -8.066406 -10.726562 -9.398438 -10.914062 -10.984375 -10.53125 C -12.265625 -10.226562 -13.21875 -9.71875 -13.84375 -9 C -14.46875 -8.289062 -14.84375 -7.546875 -14.96875 -6.765625 C -15.09375 -5.984375 -15.078125 -5.28125 -14.921875 -4.65625 L -14.296875 -2.078125 L -4.3125 -4.5 Z M -4.765625 -6.375 "/></g></g></g><path fill="#d9d9d9" d="M 108.210938 169.996094 L 110.070312 155.171875 L 111.558594 155.355469 L 109.699219 170.183594 Z M 108.210938 169.996094 " fill-opacity="1" fill-rule="nonzero"/><g fill="#d9d9d9" fill-opacity="1"><g transform="translate(106.721104, 169.808297)"><g><path d="M -14.734375 -15.359375 L -11.59375 -14.96875 L -12.59375 -7.015625 L -9.109375 -6.578125 L -8.21875 -13.625 L -5.109375 -13.234375 L -6 -6.1875 L -2.4375 -5.734375 L -1.40625 -14 L 1.703125 -13.609375 L 0.265625 -2.125 L -16.140625 -4.1875 Z M -14.734375 -15.359375 "/></g></g></g><path fill="#d9d9d9" d="M 112.261719 147.691406 L 119.914062 133.0625 L 121.246094 133.757812 L 113.59375 148.386719 Z M 112.261719 147.691406 " fill-opacity="1" fill-rule="nonzero"/><g fill="#d9d9d9" fill-opacity="1"><g transform="translate(110.933866, 146.997482)"><g><path d="M -7.328125 -21.671875 L 4.5 -6.96875 L -14.328125 -8.296875 L -12.515625 -11.75 L -2.5 -10.78125 L -9.125 -18.234375 Z M -7.328125 -21.671875 "/></g></g></g><path fill="#d9d9d9" d="M 124.921875 127.007812 L 134.535156 118.140625 L 135.550781 119.242188 L 125.9375 128.109375 Z M 124.921875 127.007812 " fill-opacity="1" fill-rule="nonzero"/><g fill="#d9d9d9" fill-opacity="1"><g transform="translate(123.905087, 125.903744)"><g><path d="M -0.453125 -16.640625 C -2.035156 -16.242188 -3.21875 -15.6875 -4 -14.96875 C -4.53125 -14.476562 -4.84375 -13.992188 -4.9375 -13.515625 C -5.039062 -13.035156 -4.898438 -12.585938 -4.515625 -12.171875 C -4.160156 -11.785156 -3.632812 -11.640625 -2.9375 -11.734375 C -2.238281 -11.835938 -1.414062 -12.085938 -0.46875 -12.484375 C 0.28125 -12.796875 0.984375 -13.003906 1.640625 -13.109375 C 2.304688 -13.222656 2.988281 -13.164062 3.6875 -12.9375 C 4.394531 -12.707031 5.082031 -12.234375 5.75 -11.515625 C 6.332031 -10.878906 6.707031 -10.140625 6.875 -9.296875 C 7.050781 -8.460938 6.96875 -7.601562 6.625 -6.71875 C 6.28125 -5.84375 5.671875 -5.003906 4.796875 -4.203125 C 4.066406 -3.523438 3.242188 -2.960938 2.328125 -2.515625 C 1.421875 -2.066406 0.460938 -1.78125 -0.546875 -1.65625 L -1.21875 -4.5 C -0.507812 -4.582031 0.203125 -4.769531 0.921875 -5.0625 C 1.640625 -5.351562 2.210938 -5.695312 2.640625 -6.09375 C 3.148438 -6.5625 3.488281 -7.078125 3.65625 -7.640625 C 3.832031 -8.203125 3.695312 -8.726562 3.25 -9.21875 C 2.664062 -9.84375 1.578125 -9.84375 -0.015625 -9.21875 C -0.960938 -8.84375 -1.78125 -8.566406 -2.46875 -8.390625 C -3.164062 -8.222656 -3.898438 -8.222656 -4.671875 -8.390625 C -5.441406 -8.554688 -6.160156 -9 -6.828125 -9.71875 C -7.785156 -10.757812 -8.210938 -11.914062 -8.109375 -13.1875 C -8.015625 -14.457031 -7.421875 -15.648438 -6.328125 -16.765625 C -5.429688 -17.585938 -4.582031 -18.175781 -3.78125 -18.53125 C -2.988281 -18.894531 -2.140625 -19.148438 -1.234375 -19.296875 Z M -0.453125 -16.640625 "/></g></g></g><path fill="#d9d9d9" d="M 141.484375 113.820312 L 148 110.546875 L 148.671875 111.890625 L 142.15625 115.160156 Z M 141.484375 113.820312 " fill-opacity="1" fill-rule="nonzero"/><g fill="#d9d9d9" fill-opacity="1"><g transform="translate(140.81152, 112.48005)"><g/></g></g><path fill="#d9d9d9" d="M 155.546875 107.5 L 169.699219 104.96875 L 169.964844 106.445312 L 155.808594 108.976562 Z M 155.546875 107.5 " fill-opacity="1" fill-rule="nonzero"/><g fill="#d9d9d9" fill-opacity="1"><g transform="translate(155.28136, 106.021652)"><g><path d="M 2.40625 -17.21875 L 4.765625 -4.046875 L 12.40625 -5.40625 L 12.953125 -2.3125 L 2.109375 -0.375 L -0.796875 -16.640625 Z M 2.40625 -17.21875 "/></g></g></g><path fill="#d9d9d9" d="M 177.828125 105.203125 L 185.292969 106.050781 L 185.125 107.542969 L 177.660156 106.695312 Z M 177.828125 105.203125 " fill-opacity="1" fill-rule="nonzero"/><g fill="#d9d9d9" fill-opacity="1"><g transform="translate(177.998482, 103.713451)"><g><path d="M 7.234375 -15.8125 L 5.359375 0.609375 L 2.125 0.234375 L 4 -16.1875 Z M 7.234375 -15.8125 "/></g></g></g><path fill="#d9d9d9" d="M 193.265625 107.636719 L 206.613281 113.347656 L 206.023438 114.726562 L 192.675781 109.015625 Z M 193.265625 107.636719 " fill-opacity="1" fill-rule="nonzero"/><g fill="#d9d9d9" fill-opacity="1"><g transform="translate(193.855966, 106.256222)"><g><path d="M 13.21875 -3.828125 C 13.84375 -3.109375 14.253906 -2.351562 14.453125 -1.5625 C 14.648438 -0.769531 14.582031 0.015625 14.25 0.796875 C 13.582031 2.335938 12.585938 3.253906 11.265625 3.546875 C 9.953125 3.835938 8.539062 3.65625 7.03125 3 L 1.96875 0.84375 L 8.46875 -14.359375 L 12.921875 -12.453125 C 14.523438 -11.765625 15.648438 -10.894531 16.296875 -9.84375 C 16.941406 -8.789062 17.003906 -7.644531 16.484375 -6.40625 C 16.160156 -5.65625 15.710938 -5.054688 15.140625 -4.609375 C 14.566406 -4.171875 13.925781 -3.910156 13.21875 -3.828125 Z M 8.796875 -6.859375 L 10.609375 -6.09375 C 11.160156 -5.851562 11.660156 -5.835938 12.109375 -6.046875 C 12.554688 -6.253906 12.882812 -6.601562 13.09375 -7.09375 C 13.3125 -7.59375 13.304688 -8.050781 13.078125 -8.46875 C 12.847656 -8.882812 12.429688 -9.222656 11.828125 -9.484375 L 10.21875 -10.171875 Z M 8.0625 0.15625 C 8.757812 0.457031 9.382812 0.554688 9.9375 0.453125 C 10.5 0.359375 10.898438 0.03125 11.140625 -0.53125 C 11.597656 -1.601562 10.976562 -2.503906 9.28125 -3.234375 L 7.5625 -3.96875 L 6.140625 -0.65625 Z M 8.0625 0.15625 "/></g></g></g><path fill="#d9d9d9" d="M 213.222656 117.5625 L 224.472656 128.054688 L 223.453125 129.152344 L 212.199219 118.660156 Z M 213.222656 117.5625 " fill-opacity="1" fill-rule="nonzero"/><g fill="#d9d9d9" fill-opacity="1"><g transform="translate(214.244277, 116.465812)"><g><path d="M 8.078125 7.53125 L 9.109375 1.3125 L 7.515625 -0.171875 L 3.9375 3.671875 L 1.5625 1.453125 L 12.84375 -10.640625 L 16.5 -7.21875 C 18 -5.820312 18.820312 -4.375 18.96875 -2.875 C 19.113281 -1.375 18.597656 0.00390625 17.421875 1.265625 C 16.734375 2.003906 15.925781 2.550781 15 2.90625 C 14.082031 3.269531 13.128906 3.335938 12.140625 3.109375 L 10.859375 10.125 Z M 9.65625 -2.46875 L 11.359375 -0.890625 C 12.003906 -0.285156 12.648438 -0.0351562 13.296875 -0.140625 C 13.941406 -0.242188 14.46875 -0.515625 14.875 -0.953125 C 15.289062 -1.390625 15.554688 -1.921875 15.671875 -2.546875 C 15.796875 -3.179688 15.492188 -3.835938 14.765625 -4.515625 L 13.0625 -6.109375 Z M 9.65625 -2.46875 "/></g></g></g><path fill="#d9d9d9" d="M 229.175781 134.292969 L 236.195312 148.234375 L 234.855469 148.90625 L 227.835938 134.964844 Z M 229.175781 134.292969 " fill-opacity="1" fill-rule="nonzero"/><g fill="#d9d9d9" fill-opacity="1"><g transform="translate(230.515673, 133.616857)"><g><path d="M 7.53125 7.75 L 5.0625 2.859375 L 1.5625 3.109375 L 0.125 0.234375 L 18.8125 -0.828125 L 18.90625 -0.65625 L 6.90625 13.71875 L 5.203125 10.34375 Z M 9.484375 5.5625 L 12.359375 2.34375 L 8.015625 2.640625 Z M 9.484375 5.5625 "/></g></g></g><path fill="#d9d9d9" d="M 238.410156 155.722656 L 240.140625 171.011719 L 238.648438 171.179688 L 236.921875 155.890625 Z M 238.410156 155.722656 " fill-opacity="1" fill-rule="nonzero"/><g fill="#d9d9d9" fill-opacity="1"><g transform="translate(239.90093, 155.553631)"><g><path d="M 1.234375 10.984375 L 6.0625 6.921875 L 5.828125 4.765625 L 0.609375 5.359375 L 0.234375 2.125 L 16.65625 0.265625 L 17.21875 5.234375 C 17.457031 7.273438 17.144531 8.910156 16.28125 10.140625 C 15.414062 11.378906 14.128906 12.09375 12.421875 12.28125 C 11.410156 12.394531 10.4375 12.289062 9.5 11.96875 C 8.570312 11.644531 7.804688 11.078125 7.203125 10.265625 L 1.671875 14.75 Z M 8.953125 4.421875 L 9.203125 6.71875 C 9.304688 7.59375 9.640625 8.195312 10.203125 8.53125 C 10.765625 8.875 11.34375 9.015625 11.9375 8.953125 C 12.53125 8.878906 13.078125 8.640625 13.578125 8.234375 C 14.078125 7.835938 14.273438 7.148438 14.171875 6.171875 L 13.90625 3.859375 Z M 8.953125 4.421875 "/></g></g></g><path fill="#d9d9d9" d="M 239.699219 178.789062 L 235.765625 194.5 L 234.3125 194.136719 L 238.242188 178.425781 Z M 239.699219 178.789062 " fill-opacity="1" fill-rule="nonzero"/><g fill="#d9d9d9" fill-opacity="1"><g transform="translate(241.153902, 179.153041)"><g><path d="M 12.171875 19.421875 L 2.640625 10.625 L -2.34375 9.375 L -1.5625 6.234375 L 3.421875 7.484375 L 15.953125 4.34375 L 14.96875 8.25 L 6.640625 10.0625 L 13.15625 15.515625 Z M 12.171875 19.421875 "/></g></g></g></svg>